# xmcd CD database file
#
# Track frame offsets:
#	150
#	28902
#	67974
#	109160
#	147640
#	186803
#	215043
#	246736
#	287493
#
# Disc length: 4592 seconds
#
# Revision: 1
# Processed by: cddbd v1.5.2PL0 Copyright (c) Steve Scherf et al.
# Submitted via: CDex 1.70beta2
#
DISCID=9511ee09
DTITLE=Nadav Haber Quartet - Addis Mist: A Journey Between Ethiopia And Jerusalem
DYEAR=2006
DGENRE=Jazz
TTITLE0=Merkato
TTITLE1=Revelation
TTITLE2=Reflection
TTITLE3=Rambling (Interlude)
TTITLE4=Limbo
TTITLE5=Sudan
TTITLE6=Arrival (Interlude)
TTITLE7=Tizita
TTITLE8=Prayer
EXTD=YEAR: 2006
EXTT0=
EXTT1=
EXTT2=
EXTT3=
EXTT4=
EXTT5=
EXTT6=
EXTT7=
EXTT8=
PLAYORDER=
